<?xml version="1.0" standalone="no"?>
<!DOCTYPE svg PUBLIC "-//W3C//DTD SVG 20010904//EN"
 "http://www.w3.org/TR/2001/REC-SVG-20010904/DTD/svg10.dtd">
<svg version="1.0" xmlns="http://www.w3.org/2000/svg"
 width="723.000000pt" height="629.000000pt" viewBox="0 0 723.000000 629.000000"
 preserveAspectRatio="xMidYMid meet">

<g transform="translate(0.000000,629.000000) scale(0.100000,-0.100000)"
fill="#000000" stroke="none">
<path d="M3113 5644 c-1028 -124 -1879 -888 -2112 -1894 -47 -204 -56 -295
-56 -560 0 -286 12 -388 70 -616 223 -869 910 -1556 1779 -1779 203 -52 317
-67 561 -72 233 -5 363 6 565 47 847 176 1556 806 1829 1625 176 528 176 1062
0 1587 -122 366 -314 674 -593 954 -343 342 -744 563 -1217 668 -245 55 -575
71 -826 40z m-615 -1444 c80 -13 163 -50 190 -84 11 -15 26 -53 32 -84 18 -93
30 -121 53 -129 31 -10 1388 -3 1409 8 11 6 23 37 34 86 9 43 23 90 30 105 30
59 148 102 279 101 160 -1 230 -45 266 -168 20 -65 27 -76 104 -150 156 -151
166 -179 199 -591 14 -170 37 -426 50 -569 26 -282 25 -316 -17 -388 -48 -81
-165 -153 -264 -163 -109 -11 -242 52 -340 160 -26 29 -91 122 -143 205 -52
84 -97 154 -101 157 -3 2 -35 -12 -71 -31 -204 -108 -446 -46 -564 146 l-37
60 -136 -3 -136 -3 -32 -49 c-75 -115 -169 -178 -296 -198 -102 -15 -194 1
-273 48 -31 19 -60 34 -64 34 -4 0 -50 -68 -101 -152 -120 -194 -200 -281
-307 -334 -69 -35 -85 -39 -152 -39 -93 1 -166 31 -239 100 -62 58 -91 115
-91 181 0 27 13 198 29 379 17 182 37 420 46 530 8 110 20 223 26 250 24 106
94 210 205 305 34 29 45 48 63 106 25 84 48 117 104 145 68 35 148 44 245 29z"/>
<path d="M2340 3904 c-297 -80 -395 -455 -173 -665 29 -27 79 -62 110 -77 52
-24 70 -27 163 -27 93 0 111 3 163 27 31 15 81 50 110 77 224 212 124 587
-178 665 -72 19 -123 19 -195 0z m190 -195 c0 -59 -1 -62 -49 -112 l-50 -52
-45 45 c-46 44 -46 45 -46 112 l0 68 95 0 95 0 0 -61z m-177 -139 l52 -50 -47
-45 c-46 -45 -47 -45 -117 -45 l-71 0 0 88 c0 49 3 92 7 95 3 4 33 7 65 7 58
0 61 -1 111 -50z m337 -45 l0 -95 -68 0 c-66 0 -69 1 -117 45 l-50 44 52 51
c51 50 52 50 117 50 l66 0 0 -95z m-223 -57 c53 -58 63 -79 63 -140 l0 -58
-95 0 -95 0 0 66 c0 62 2 68 42 115 22 27 44 49 48 49 3 0 20 -15 37 -32z"/>
<path d="M4415 3907 c-82 -22 -127 -48 -191 -112 -83 -82 -108 -146 -109 -275
0 -86 3 -101 31 -160 37 -78 71 -120 130 -161 167 -115 412 -83 533 70 143
180 111 433 -72 571 -87 66 -219 93 -322 67z m145 -74 c33 -19 50 -52 50 -96
0 -96 -123 -139 -184 -66 -79 93 30 224 134 162z m-210 -220 c50 -29 66 -105
34 -152 -61 -86 -194 -42 -194 63 1 85 86 133 160 89z m439 -12 c26 -24 31
-36 31 -76 0 -38 -5 -52 -29 -76 -65 -65 -181 -21 -181 68 1 71 42 112 111
113 27 0 45 -8 68 -29z m-208 -220 c24 -24 29 -38 29 -76 0 -40 -5 -52 -31
-76 -44 -41 -108 -41 -150 0 -24 24 -29 38 -29 76 0 38 5 52 29 76 24 24 38
29 76 29 38 0 52 -5 76 -29z"/>
<path d="M2865 3211 c-158 -73 -184 -293 -46 -398 125 -96 307 -50 368 94 32
78 8 196 -53 257 -65 65 -185 86 -269 47z"/>
<path d="M3874 3211 c-87 -40 -143 -142 -131 -242 19 -160 187 -253 332 -185
180 83 188 333 14 420 -65 32 -153 35 -215 7z"/>
</g>
</svg>
